<?xml version="1.0" encoding="UTF-8" standalone="no"?>
<svg
   xmlns:dc="http://purl.org/dc/elements/1.1/"
   xmlns:cc="http://creativecommons.org/ns#"
   xmlns:rdf="http://www.w3.org/1999/02/22-rdf-syntax-ns#"
   xmlns:svg="http://www.w3.org/2000/svg"
   xmlns="http://www.w3.org/2000/svg"
   xmlns:sodipodi="http://sodipodi.sourceforge.net/DTD/sodipodi-0.dtd"
   xmlns:inkscape="http://www.inkscape.org/namespaces/inkscape"
   enable-background="new 0 0 128 128"
   id="Слой_1"
   version="1.1"
   viewBox="0 0 52.8 52.698658"
   xml:space="preserve"
   sodipodi:docname="action.svg"
   width="48"
   height="47.907871"
   inkscape:version="0.92.4 (5da689c313, 2019-01-14)"><metadata
     id="metadata123"><rdf:RDF><cc:Work
         rdf:about=""><dc:format>image/svg+xml</dc:format><dc:type
           rdf:resource="http://purl.org/dc/dcmitype/StillImage" /><dc:title></dc:title></cc:Work></rdf:RDF></metadata><defs
     id="defs121" /><sodipodi:namedview
     pagecolor="#ffffff"
     bordercolor="#666666"
     borderopacity="1"
     objecttolerance="10"
     gridtolerance="10"
     guidetolerance="10"
     inkscape:pageopacity="0"
     inkscape:pageshadow="2"
     inkscape:window-width="1173"
     inkscape:window-height="748"
     id="namedview119"
     showgrid="false"
     fit-margin-top="0"
     fit-margin-left="0"
     fit-margin-right="0"
     fit-margin-bottom="0"
     viewbox-width="78.15"
     inkscape:zoom="1.84375"
     inkscape:cx="40.124999"
     inkscape:cy="83.559091"
     inkscape:window-x="0"
     inkscape:window-y="0"
     inkscape:window-maximized="0"
     inkscape:current-layer="Слой_1"
     scale-x="0.6" /><g
     id="g116"
     transform="matrix(0.6756238,0,0,0.6756238,-16.079846,-18.849904)"><g
       id="g26"><g
         id="g8"><g
           id="g6"><g
             id="g4"><circle
               cx="62.799999"
               cy="36.900002"
               r="7.5"
               id="circle2"
               style="fill:#e6e985" /></g></g></g><g
         id="g16"><g
           id="g14"><g
             id="g12"><circle
               cx="92.800003"
               cy="36.900002"
               r="7.5"
               id="circle10"
               style="fill:#e6e985" /></g></g></g><g
         id="g24"><g
           id="g22"><g
             id="g20"><circle
               cx="32.799999"
               cy="96.900002"
               r="7.5"
               id="circle18"
               style="fill:#e6e985" /></g></g></g></g><g
       id="g52"><g
         id="g34"><g
           id="g32"><g
             id="g30"><path
               d="m 62.8,45.9 c -5,0 -9,-4 -9,-9 0,-5 4,-9 9,-9 5,0 9,4 9,9 0,5 -4.1,9 -9,9 z m 0,-15 c -3.3,0 -6,2.7 -6,6 0,3.3 2.7,6 6,6 3.3,0 6,-2.7 6,-6 0,-3.3 -2.7,-6 -6,-6 z"
               id="path28"
               inkscape:connector-curvature="0"
               style="fill:#62355c" /></g></g></g><g
         id="g42"><g
           id="g40"><g
             id="g38"><path
               d="m 92.8,45.9 c -5,0 -9,-4 -9,-9 0,-5 4,-9 9,-9 5,0 9,4 9,9 0,5 -4.1,9 -9,9 z m 0,-15 c -3.3,0 -6,2.7 -6,6 0,3.3 2.7,6 6,6 3.3,0 6,-2.7 6,-6 0,-3.3 -2.7,-6 -6,-6 z"
               id="path36"
               inkscape:connector-curvature="0"
               style="fill:#62355c" /></g></g></g><g
         id="g50"><g
           id="g48"><g
             id="g46"><path
               d="m 32.8,105.9 c -5,0 -9,-4 -9,-9 0,-5 4,-9 9,-9 5,0 9,4 9,9 0,5 -4.1,9 -9,9 z m 0,-15 c -3.3,0 -6,2.7 -6,6 0,3.3 2.7,6 6,6 3.3,0 6,-2.7 6,-6 0,-3.3 -2.7,-6 -6,-6 z"
               id="path44"
               inkscape:connector-curvature="0"
               style="fill:#62355c" /></g></g></g></g><g
       id="g70"><g
         id="g60"><g
           id="g58"><g
             id="g56"><path
               d="m 85.5,105.9 c -0.4,0 -0.8,-0.1 -1.1,-0.4 -0.6,-0.6 -0.6,-1.5 0,-2.1 l 15,-15 c 0.6,-0.6 1.5,-0.6 2.1,0 0.6,0.6 0.6,1.5 0,2.1 l -15,15 c -0.2,0.2 -0.6,0.4 -1,0.4 z"
               id="path54"
               inkscape:connector-curvature="0"
               style="fill:#62355c" /></g></g></g><g
         id="g68"><g
           id="g66"><g
             id="g64"><path
               d="m 100.5,105.9 c -0.4,0 -0.8,-0.1 -1.1,-0.4 l -15,-15 c -0.6,-0.6 -0.6,-1.5 0,-2.1 0.6,-0.6 1.5,-0.6 2.1,0 l 15,15 c 0.6,0.6 0.6,1.5 0,2.1 -0.2,0.2 -0.6,0.4 -1,0.4 z"
               id="path62"
               inkscape:connector-curvature="0"
               style="fill:#62355c" /></g></g></g></g><g
       id="g88"><g
         id="g78"><g
           id="g76"><g
             id="g74"><path
               d="m 55.5,75.9 c -0.4,0 -0.8,-0.1 -1.1,-0.4 -0.6,-0.6 -0.6,-1.5 0,-2.1 l 15,-15 c 0.6,-0.6 1.5,-0.6 2.1,0 0.6,0.6 0.6,1.5 0,2.1 l -15,15 c -0.2,0.2 -0.6,0.4 -1,0.4 z"
               id="path72"
               inkscape:connector-curvature="0"
               style="fill:#62355c" /></g></g></g><g
         id="g86"><g
           id="g84"><g
             id="g82"><path
               d="m 70.5,75.9 c -0.4,0 -0.8,-0.1 -1.1,-0.4 l -15,-15 c -0.6,-0.6 -0.6,-1.5 0,-2.1 0.6,-0.6 1.5,-0.6 2.1,0 l 15,15 c 0.6,0.6 0.6,1.5 0,2.1 -0.2,0.2 -0.6,0.4 -1,0.4 z"
               id="path80"
               inkscape:connector-curvature="0"
               style="fill:#62355c" /></g></g></g></g><g
       id="g106"><g
         id="g96"><g
           id="g94"><g
             id="g92"><path
               d="m 25.5,75.9 c -0.4,0 -0.8,-0.1 -1.1,-0.4 -0.6,-0.6 -0.6,-1.5 0,-2.1 l 15,-15 c 0.6,-0.6 1.5,-0.6 2.1,0 0.6,0.6 0.6,1.5 0,2.1 l -15,15 c -0.2,0.2 -0.6,0.4 -1,0.4 z"
               id="path90"
               inkscape:connector-curvature="0"
               style="fill:#62355c" /></g></g></g><g
         id="g104"><g
           id="g102"><g
             id="g100"><path
               d="m 40.5,75.9 c -0.4,0 -0.8,-0.1 -1.1,-0.4 l -15,-15 c -0.6,-0.6 -0.6,-1.5 0,-2.1 0.6,-0.6 1.5,-0.6 2.1,0 l 15,15 c 0.6,0.6 0.6,1.5 0,2.1 -0.2,0.2 -0.6,0.4 -1,0.4 z"
               id="path98"
               inkscape:connector-curvature="0"
               style="fill:#62355c" /></g></g></g></g><g
       id="g114"><g
         id="g112"><g
           id="g110"><path
             d="m 52.8,98.4 c -0.8,0 -1.5,-0.7 -1.5,-1.5 0,-0.8 0.7,-1.5 1.5,-1.5 21.2,0 38.5,-17.3 38.5,-38.5 0,-0.8 0.7,-1.5 1.5,-1.5 0.8,0 1.5,0.7 1.5,1.5 0,22.8 -18.7,41.5 -41.5,41.5 z"
             id="path108"
             inkscape:connector-curvature="0"
             style="fill:#62355c" /></g></g></g></g></svg>